<svg xmlns="http://www.w3.org/2000/svg" xmlns:xlink="http://www.w3.org/1999/xlink" viewBox="0 0 190 24"><defs><style>.a{fill:url(#a);}.b{fill:url(#b);}.c{fill:url(#c);}.d{fill:url(#d);}.e{fill:url(#e);}.f{fill:url(#f);}</style><linearGradient id="a" x1="-3.92" y1="28.05" x2="21.99" y2="-4.46" gradientUnits="userSpaceOnUse"><stop offset="0" stop-color="#0052a1"/><stop offset="0.01" stop-color="#0052a1"/><stop offset="1" stop-color="#058637"/></linearGradient><linearGradient id="b" x1="0.39" y1="2.93" x2="11.62" y2="2.93" gradientUnits="userSpaceOnUse"><stop offset="0" stop-color="#358c9f"/><stop offset="0.01" stop-color="#358da0"/><stop offset="0.34" stop-color="#3f9694"/><stop offset="0.69" stop-color="#469b8c"/><stop offset="1" stop-color="#469b8c"/></linearGradient><linearGradient id="c" x1="13.2" y1="7.83" x2="24.34" y2="7.83" gradientUnits="userSpaceOnUse"><stop offset="0" stop-color="#00667e"/><stop offset="0" stop-color="#00667e"/><stop offset="1" stop-color="#00582d"/><stop offset="1" stop-color="#00582d"/></linearGradient><linearGradient id="d" x1="10.64" y1="33.95" x2="38.41" y2="4.32" gradientUnits="userSpaceOnUse"><stop offset="0" stop-color="#0056a4"/><stop offset="1" stop-color="#50af47"/></linearGradient><linearGradient id="e" x1="21.6" y1="10.6" x2="30.6" y2="2.83" gradientUnits="userSpaceOnUse"><stop offset="0" stop-color="#436636"/><stop offset="1" stop-color="#006c4d"/></linearGradient><linearGradient id="f" x1="29.86" y1="11" x2="41.42" y2="-4.85" gradientUnits="userSpaceOnUse"><stop offset="0" stop-color="#30997c"/><stop offset="0.19" stop-color="#46a362"/><stop offset="0.4" stop-color="#58ab4e"/><stop offset="0.53" stop-color="#5eae46"/><stop offset="0.96" stop-color="#50af47"/></linearGradient></defs><path d="M45.28,23.79H43.63a.45.45,0,0,1-.51-.51V.76a.45.45,0,0,1,.51-.52H55a.46.46,0,0,1,.52.52V2.07a.46.46,0,0,1-.52.52H46.16c-.24,0-.37.11-.37.33v8c0,.22.13.33.37.33H54a.45.45,0,0,1,.51.51v1.32a.46.46,0,0,1-.51.52H46.16a.33.33,0,0,0-.37.36v9.34A.45.45,0,0,1,45.28,23.79Z"/><path d="M61,23.79H59.38a.45.45,0,0,1-.51-.51V.76a.45.45,0,0,1,.51-.52h8.43a5.46,5.46,0,0,1,4,1.45,5.31,5.31,0,0,1,1.46,4V9a5.59,5.59,0,0,1-1,3.38,4.68,4.68,0,0,1-2.75,1.78v.15l4.25,8.9c.22.39.09.58-.37.58H71.76a1,1,0,0,1-.91-.51l-4.11-8.86H61.91c-.24,0-.37.11-.37.33v8.53A.45.45,0,0,1,61,23.79Zm.88-11.61h5.53q3.15,0,3.15-3.15V5.77q0-3.18-3.15-3.18H61.91c-.24,0-.37.11-.37.33v8.93C61.54,12.07,61.67,12.18,61.91,12.18Z"/><path d="M89.56,23.79H78.06a.45.45,0,0,1-.51-.51V.76a.45.45,0,0,1,.51-.52h11.5a.46.46,0,0,1,.52.52V2.07a.46.46,0,0,1-.52.52h-9c-.25,0-.37.11-.37.33v7.4c0,.22.12.33.37.33h7.84a.45.45,0,0,1,.51.51v1.32a.45.45,0,0,1-.51.51H80.59c-.25,0-.37.11-.37.33v7.8c0,.22.12.33.37.33h9a.46.46,0,0,1,.52.51v1.32A.46.46,0,0,1,89.56,23.79Z"/><path d="M97,.76V23.28a.45.45,0,0,1-.52.51H94.84a.45.45,0,0,1-.52-.51V.76a.46.46,0,0,1,.52-.52h1.64A.46.46,0,0,1,97,.76Z"/><path d="M111,23.79h-4a5.41,5.41,0,0,1-4-1.42,5.37,5.37,0,0,1-1.45-4V5.66a5.34,5.34,0,0,1,1.45-4,5.41,5.41,0,0,1,4-1.43h4a5.32,5.32,0,0,1,4,1.45,5.37,5.37,0,0,1,1.43,4V7.17q0,.54-.51.54h-1.65q-.51,0-.51-.54V5.77q0-3.18-3-3.18h-3.33q-3,0-3,3.18V18.26q0,3.19,3,3.19h3.33q3,0,3-3.19v-4.1q0-.36-.33-.36h-3.63q-.51,0-.51-.48V12a.45.45,0,0,1,.51-.51h5.9c.49,0,.73.26.73.77v6.15a5.4,5.4,0,0,1-1.43,4A5.34,5.34,0,0,1,111,23.79Z"/><path d="M123,23.79h-1.65a.45.45,0,0,1-.52-.51V.76a.46.46,0,0,1,.52-.52H123a.45.45,0,0,1,.51.52v9.63q0,.33.36.33h9.09q.36,0,.36-.33V.76a.46.46,0,0,1,.52-.52h1.64a.46.46,0,0,1,.52.52V23.28a.45.45,0,0,1-.52.51h-1.64a.45.45,0,0,1-.52-.51V13.39q0-.33-.36-.33h-9.09q-.36,0-.36.33v9.89A.45.45,0,0,1,123,23.79Z"/><path d="M146.51,23.79h-1.64a.45.45,0,0,1-.52-.51V2.92q0-.33-.36-.33h-5c-.37,0-.55-.17-.55-.52V.76c0-.35.18-.52.55-.52h13.37c.36,0,.54.17.54.52V2.07c0,.35-.18.52-.54.52h-5q-.36,0-.36.33V23.28A.45.45,0,0,1,146.51,23.79Z"/><path d="M164.83,23.79h-4.36a5.39,5.39,0,0,1-4-1.42,5.37,5.37,0,0,1-1.45-4V5.66a5.34,5.34,0,0,1,1.45-4,5.39,5.39,0,0,1,4-1.43h4.36a5.38,5.38,0,0,1,4,1.45,5.34,5.34,0,0,1,1.45,4V18.37a5.36,5.36,0,0,1-1.45,4A5.38,5.38,0,0,1,164.83,23.79Zm-4.07-2.34h3.74q3.08,0,3.07-3.19V5.77q0-3.18-3.07-3.18h-3.74q-3,0-3,3.18V18.26Q157.72,21.46,160.76,21.45Z"/><path d="M174.42,18.37V17.2a.45.45,0,0,1,.52-.51h1.64a.45.45,0,0,1,.52.51v.95c0,2.2,1.08,3.3,3.26,3.3h3.22q3.25,0,3.26-3.37V16.84q0-2.64-4.36-3.45c-1.22-.22-2.44-.47-3.66-.77a6.47,6.47,0,0,1-3.11-1.7,4.62,4.62,0,0,1-1.29-3.46V5.66a5.38,5.38,0,0,1,1.45-4,5.38,5.38,0,0,1,4-1.45h4.07a5.42,5.42,0,0,1,4,1.45,5.35,5.35,0,0,1,1.46,4v.92c0,.37-.16.55-.48.55h-1.68c-.32,0-.48-.18-.48-.55V5.92c0-2.22-1.08-3.33-3.26-3.33h-3.11q-3.25,0-3.26,3.48V7.53c0,1.25.82,2.1,2.45,2.57.74.19,1.54.37,2.42.53a26.16,26.16,0,0,1,2.66.62,13.37,13.37,0,0,1,2.43.95,4.33,4.33,0,0,1,1.78,1.72,5.49,5.49,0,0,1,.68,2.81v1.64a5.34,5.34,0,0,1-1.47,4,5.37,5.37,0,0,1-3.95,1.44h-4.22a5.39,5.39,0,0,1-4-1.44A5.34,5.34,0,0,1,174.42,18.37Z"/><rect class="a" x="0.39" y="7.31" width="11.23" height="16.55"/><rect class="b" x="0.39" y="0.13" width="11.23" height="5.59"/><rect class="c" x="13.2" y="4.35" width="11.13" height="6.96"/><rect class="d" x="13.2" y="12.9" width="24.06" height="10.97"/><rect class="e" x="25.92" y="0.13" width="2.65" height="11.18"/><rect class="f" x="30.16" y="0.13" width="7.11" height="11.18"/></svg>