<?xml version="1.0" ?><svg id="Layer_1" style="enable-background:new 0 0 91 91;" version="1.1" viewBox="0 0 91 91" xml:space="preserve" xmlns="http://www.w3.org/2000/svg" xmlns:xlink="http://www.w3.org/1999/xlink"><g><path d="M36.7,70.3L36.7,70.3h33.1H75v-3.4h-3.5V42.5c0-0.7-0.4-1.2-1-1.5c-0.6-0.3-1.3-0.2-1.8,0.2L55,52.6l-0.1-10.1   c0-0.6-0.4-1.2-0.9-1.5c-0.6-0.3-1.2-0.2-1.8,0.2L38.4,51.5V33.2c0-0.9-0.8-1.7-1.7-1.7h-8.3c-0.9,0-1.6,0.6-1.7,1.5l-4,33.9h-3.4   v3.4h4.9H36.7z"/><path d="M31.4,30.4c0.2,0.1,0.4,0.1,0.6,0.1c0.8,0,1.5-0.5,1.8-1.3c1.4-4.2,5.6-4.8,8.7-4.1c5.4,1.3,10.2,1.8,14-5.5   c0.5-0.9,0.1-2.1-0.8-2.5c-0.9-0.5-2.1-0.1-2.5,0.8c-2.4,4.6-4.3,4.9-9.8,3.6c-5-1.2-11,0.4-13.1,6.5C29.9,29,30.4,30.1,31.4,30.4z   "/></g></svg>