<?xml version="1.0" ?><svg id="Layer_1" style="enable-background:new 0 0 128 128;" version="1.1" viewBox="0 0 128 128" xml:space="preserve" xmlns="http://www.w3.org/2000/svg" xmlns:xlink="http://www.w3.org/1999/xlink"><style type="text/css">
	.st0{fill:#231F20;}
	.st1{fill:#E61E25;}
	.st2{fill:#089949;}
	.st3{fill:#FFFFFF;}
	.st4{fill:#D81F26;}
	.st5{fill:#233E93;}
	.st6{fill:#F16522;}
	.st7{fill:#0398C3;}
	.st8{fill:#DE1E39;}
	.st9{fill:#00AD65;}
	.st10{fill:#FFFFFB;}
	.st11{fill:#CE2031;}
	.st12{fill:#A81D44;}
	.st13{fill:#008757;}
	.st14{fill:#ED3342;}
	.st15{fill:#F8EC3B;}
	.st16{fill:#F37C20;}
	.st17{fill:#F1E923;}
	.st18{fill:#020202;}
	.st19{fill:#E32A27;}
	.st20{fill:#EC1C2B;}
	.st21{fill:#28439B;}
	.st22{fill:#E32B25;}
	.st23{fill:#FDDB00;}
	.st24{fill:#E71D2E;}
	.st25{fill:#0D8943;}
	.st26{fill:#F58722;}
	.st27{fill:#333493;}
	.st28{fill:#D52028;}
	.st29{fill:#2B4A9E;}
	.st30{fill:#1D9E49;}
	.st31{fill:#DB1F26;}
	.st32{fill:#DD1F28;}
	.st33{fill:#35469C;}
	.st34{fill:#ED2424;}
	.st35{fill:#018B45;}
	.st36{fill:#DD1F26;}
	.st37{fill:#0A9D49;}
	.st38{fill:#E81E25;}
	.st39{fill:#293580;}
	.st40{fill:#D91F26;}
	.st41{fill:#EC1C25;}
	.st42{fill:#27B36D;}
	.st43{fill:#FBDF00;}
	.st44{fill:#3EB44A;}
	.st45{fill:#ED2E33;}
	.st46{fill:#DF252F;}
	.st47{fill:#2F4C9F;}
	.st48{fill:#F6CD0F;}
	.st49{fill:#DC1F28;}
	.st50{fill:#117F40;}
	.st51{fill:#E13131;}
	.st52{fill:#2B2D7E;}
	.st53{fill:#FCD900;}
	.st54{fill:#038A45;}
	.st55{fill:#EC2025;}
	.st56{fill:#EC1C2A;}
	.st57{fill:#2651A3;}
	.st58{fill:#0D804B;}
	.st59{fill:#354EA0;}
	.st60{fill:none;}
	.st61{fill:#DF1F2A;}
	.st62{fill:#FFFFFA;}
	.st63{fill:#F9D10B;}
	.st64{fill:#DF1F26;}
	.st65{fill:#009651;}
</style><g><g><path class="st30" d="M111.1,47.3H16.8c0-0.1,0.1-0.2,0.1-0.3c0.3-0.8,0.6-1.6,0.9-2.4c0.8-1.9,1.7-3.8,2.8-5.6    C29.3,24,45.5,14,64,14c18.5,0,34.7,10,43.3,25c0.8,1.3,1.5,2.7,2.1,4c0,0,0,0.1,0,0.1c0.3,0.5,0.5,1.1,0.7,1.6    c0.3,0.8,0.6,1.6,0.9,2.4C111.1,47.2,111.1,47.3,111.1,47.3z"/><path class="st10" d="M114,64c0,5.8-1,11.5-2.9,16.7H16.8C15,75.5,14,69.8,14,64s1-11.5,2.8-16.7H62c0.1,0.1,0.2,0.2,0.3,0.4    c0.1-0.1,0.2-0.3,0.3-0.4h48.6C113,52.5,114,58.2,114,64z"/><path class="st31" d="M111.1,80.7L111.1,80.7c0,0.1-0.1,0.2-0.1,0.3c-0.3,0.8-0.6,1.6-0.9,2.3c-0.3,0.7-0.6,1.4-1,2.1    c-0.6,1.2-1.2,2.4-1.9,3.6c-8.6,15-24.8,25-43.3,25c-18.5,0-34.7-10-43.3-25c-0.7-1.2-1.4-2.5-2-3.8c-0.1-0.2-0.2-0.4-0.3-0.5    c-0.2-0.3-0.3-0.7-0.4-1c-0.1-0.3-0.3-0.7-0.4-1c-0.1-0.3-0.3-0.7-0.4-1c-0.1-0.3-0.2-0.6-0.4-1c0,0,0,0,0,0H111.1z"/></g><g><path class="st31" d="M66.1,74.5c1.7,0.3,3.2,0.6,4.6,0.8c-0.8,0.4-2.2,0.5-5.5,0.2c-0.4,0.6-0.8,1.2-1.2,1.9    c-0.5-0.7-0.9-1.2-1.3-1.9c-1.8,0.2-3.7,0.3-5.6-0.2c1.5-0.3,3-0.5,4.6-0.8c-4.5-3-6.9-7-6.6-12.3c0.2-3.2,1.6-5.9,3.9-8.2    c-1.7,3.1-2.4,6.4-1.7,9.9c0.7,3.5,2.5,6.3,5.4,8.6c0-0.4,0-0.7,0-0.9c-0.1-5.5-0.2-11-0.4-16.5c0-0.7,0-1.3,0.8-1.7    c0.3-0.2,0.6-0.5,0.8-0.7c0.5,0.4,1,0.7,1.4,1.1c0.1,0.1,0.2,0.4,0.2,0.6c-0.1,4.7-0.2,9.5-0.3,14.2c0,1.2,0,2.4,0,3.7    c2.9-2.2,4.6-5,5.3-8.5c0.7-3.5,0-6.8-1.8-10C74.3,58.5,75.1,69.4,66.1,74.5z"/><path class="st31" d="M70.1,53.4c3.8,0.9,7.1,4.6,7.6,8.5c0.6,4.3-1.5,8.8-4.9,10.6c2.2-3.2,2.9-6.5,2.4-10.1    C74.8,58.8,73,55.9,70.1,53.4z"/><path class="st31" d="M55,72.4c-2.8-1.2-5.2-5.8-4.8-9.3c0.5-4.8,3.5-8.6,7.6-9.5C52,59.1,51,65.4,55,72.4z"/><path class="st31" d="M67.5,50.5c0.1,1-0.1,1.6-0.9,2c-1,0.6-1.9,0.3-2.6-0.5c-0.8,0.7-1.6,1.1-2.6,0.5c-0.8-0.5-1.1-1.2-1-1.9    c0.6,0.3,1.2,0.8,1.9,0.9c0.5,0.1,1.1-0.4,1.8-0.6C65.5,52.1,66.3,52,67.5,50.5z"/></g><g><path class="st3" d="M51.5,80.7c0.4,0,0.7,0,1,0c0,1.3,0,2.5,0,3.8c0.4,0,0.6,0,0.9,0.1c0-1.3,0-2.5,0-3.9c0.3,0,0.6,0,1-0.1    c0,1.7,0,3.3,0,5c-1.6,0-3.2,0-4.9,0c0-0.6-0.1-1.2-0.1-1.9c-1,0-1.9,0-2.9,0c0,1.5,1.3,0.5,1.9,1.1c0,0.1,0,0.4,0.1,0.9    c-0.9,0-1.8,0-2.6,0c-0.1,0-0.4-0.3-0.4-0.4c0-0.8,0-1.7,0-2.6c1,0,2-0.1,2.9,0c0.9,0.1,1.3-0.2,1.2-1.1c0-0.3,0-0.5,0-0.9    c0.3,0,0.6,0,0.9-0.1c0,1.3,0,2.6,0,3.8c0.7,0.4,1,0.1,1-0.6C51.4,82.8,51.5,81.8,51.5,80.7z"/><path class="st3" d="M109.1,80.7h1v2.6c-0.3,0.7-0.6,1.4-1,2.1c0-0.5-0.1-1.1-0.1-1.7h-2.8c0,0.2,0,0.5-0.1,0.8    c0.6,0,1.2,0.1,1.8,0.1v1c-0.8,0-1.7,0-2.5,0c-0.1,0-0.4-0.3-0.4-0.5c0-0.8,0-1.6,0-2.5c1,0,1.9-0.1,2.8,0    c0.9,0.1,1.4-0.2,1.2-1.2C109.1,81.3,109.1,81,109.1,80.7z"/><path class="st3" d="M111.1,80.7c0,0.1-0.1,0.2-0.1,0.3v-0.3H111.1z"/><path class="st3" d="M74.3,85.6c-1.5,0-3,0-4.5,0c-0.2,0-0.4-0.4-0.5-0.6c-0.1-0.4,0-0.9,0-1.3c-1,0-1.9,0-2.9,0    c0,0.3,0,0.5,0,0.8c0.7,0,1.3,0,1.9,0c0,0.4,0,0.7,0.1,1.1c-1,0-2,0-3,0c0-1,0-1.9,0-3c1.3,0,2.5,0,3.8,0c0-0.7,0.1-1.3,0.1-2    c0.4,0,0.7,0,1,0c0,1.3,0,2.5,0,3.8c0.3,0,0.6,0,0.9,0.1c0-1.3,0-2.6,0-3.9c0.4,0,0.6,0,1,0c0,1.3,0,2.5,0,3.8c0.4,0,0.6,0,1,0    c0-1.3,0-2.5,0-3.8c0.4,0,0.6,0,1,0C74.3,82.3,74.3,83.9,74.3,85.6z"/><path class="st3" d="M33.6,80.6c0.4,0,0.7,0,1.1,0c0,1.5,0,3,0,4.5c0,0.2-0.3,0.4-0.4,0.4c-1.5,0-3,0-4.5,0c0-0.7,0-1.3,0-2    c-1,0-1.9,0-2.9,0c0,0.3,0,0.5,0,0.9c0.5,0,1-0.1,1.4,0c0.2,0,0.4,0.3,0.6,0.5c-0.2,0.2-0.4,0.4-0.6,0.5c0,0-0.1,0-0.1,0    c-2.5,0.1-2.7-0.2-2.2-3c0.6,0,1.3,0,1.9,0c0.6,0,1.2,0,1.9,0c0-0.7,0-1.3,0-2c0.3,0,0.6,0,1-0.1c0,1.3,0,2.6,0,3.9    c0.4,0,0.6,0,1,0c0-1.3,0-2.5,0-3.8c0.4,0,0.6,0,1,0c0,1.3,0,2.5,0,3.8c0.7,0.2,1,0.1,1-0.6C33.5,82.8,33.6,81.7,33.6,80.6z"/><path class="st3" d="M85.3,82.7c1.3,0,2.5,0,3.8,0c0-0.7,0-1.3,0-2c0.4,0,0.7,0,1.1-0.1c0,1.3,0,2.6,0,3.9c0.4,0,0.6,0,1,0    c0-1.3,0-2.5,0-3.8c0.4,0,0.6,0,1-0.1c0,1.3,0,2.6,0,3.9c0.3,0,0.6,0,0.9,0.1c0-1.3,0-2.6,0-3.9c0.4,0,0.7,0,1.1-0.1    c0,1.6,0,3.1,0,4.6c0,0.1-0.3,0.4-0.5,0.4c-1.5,0-3,0-4.5,0c0-0.7,0-1.3,0-2c-1,0-1.9,0-2.9,0c0,0.3,0,0.5,0,0.9    c0.5,0,0.9-0.1,1.3,0c0.2,0.1,0.4,0.4,0.6,0.5c-0.2,0.2-0.4,0.5-0.6,0.5c-0.8,0.1-1.5,0-2.4,0C85.3,84.6,85.3,83.7,85.3,82.7z"/><path class="st3" d="M35.7,82.7c1.7,0,3.3,0,4.9,0c0,0.6,0.1,1.2,0.1,1.9c0.8,0,1.7,0,2.5,0c0.2,0,0.3-0.4,0.7-0.8    c-0.9,0-1.5,0-2.2,0c0-0.4,0-0.7,0-1c1,0,1.9,0,2.9,0c0,1,0,1.9,0,3c-1.5,0-3,0-4.5,0c-0.2,0-0.4-0.3-0.5-0.5    c-0.1-0.4,0-0.9,0-1.4c-1,0-1.9,0-2.9,0c0,0.6-0.1,1.2-0.1,1.9c-0.3,0-0.6,0-0.9,0C35.7,84.6,35.7,83.7,35.7,82.7z"/><path class="st3" d="M24.6,82.7v2.9h-4.8c0-0.6-0.1-1.3-0.1-1.9H18c-0.1-0.3-0.3-0.7-0.4-1h3.1v1.8h2.9c0-0.2,0.1-0.5,0.1-0.8h-2    c0-0.3-0.1-0.6-0.1-1H24.6z"/><path class="st3" d="M84.2,82.6c0,1.1,0,2,0,3c-1.6,0-3.2,0-4.9,0c0-0.6-0.1-1.2-0.1-1.9c-0.9,0-1.8,0-2.9,0c0,0.5,0,1,0,1.4    c0,0.2-0.3,0.5-0.5,0.5c-0.2,0-0.5-0.3-0.6-0.5c-0.1-0.8,0-1.6,0-2.4c1.7,0,3.3,0,5,0c0,0.6,0,1.2,0,1.8c1,0,1.9,0,2.9,0    c0-0.2,0-0.5,0.1-0.8c-0.7,0-1.3,0-1.9,0c-0.3-0.7-0.1-1.1,0.6-1C82.7,82.7,83.4,82.6,84.2,82.6z"/><path class="st3" d="M99.1,83.7c-1,0-1.9,0-2.7,0c-0.6,0.5,0.5,2-1.1,2c0-1,0-2,0-3c1.6,0,3.2,0,4.9,0c0,0.6,0.1,1.2,0.1,1.9    c0.8,0,1.5,0,2.2,0c0.7,0,0.7,0,0.6-0.9c-0.6,0-1.2,0-1.9,0c0-0.4,0-0.6,0-1c0.9,0,1.9,0,2.9,0c0,0.9,0,1.9,0,2.9    c-1.5,0-3,0-4.5,0c-0.1,0-0.4-0.3-0.4-0.6C99.1,84.6,99.1,84.2,99.1,83.7z"/><path class="st3" d="M55.5,82.7c1.6,0,3.2,0,4.9,0c0,0.6,0,1.2,0,1.8c1,0,1.9,0,2.9,0c0-0.2,0-0.5,0-0.8c-0.6,0-1.2,0-1.9,0    c0-0.3,0-0.6,0-0.9c1,0,1.9,0,3,0c0,0.8,0,1.7,0,2.5c0,0.2-0.3,0.4-0.5,0.4c-1.4,0-2.9,0-4.4,0c0-0.7,0-1.3,0-2c-1,0-1.9,0-2.9,0    c0,0.6,0,1.2,0,1.9c-0.4,0-0.7,0-1,0C55.5,84.6,55.5,83.7,55.5,82.7z"/><path class="st3" d="M88.2,80.7c0.2,0.7,0,1-0.7,1c-3.8,0-7.6,0-11.4,0c-0.7,0-0.9-0.2-0.7-0.9C79.6,80.7,83.9,80.7,88.2,80.7z"/><path class="st3" d="M27.9,81.6c-3.6,0-7.1,0-10.7,0c-0.1-0.3-0.2-0.6-0.4-1h11.8C28.8,81.4,28.6,81.6,27.9,81.6z"/><path class="st3" d="M48.5,80.7c0,0.3,0,0.6,0,0.9c-4.3,0-8.5,0-12.8,0c0-0.3,0-0.5,0-0.9C39.9,80.7,44.2,80.7,48.5,80.7z"/><path class="st3" d="M68.4,80.7c0,0.3,0,0.6,0,0.9c-4.3,0-8.5,0-12.8,0c0-0.3,0-0.6,0-0.9C59.8,80.7,64,80.7,68.4,80.7z"/><path class="st3" d="M108.1,80.7c0,0.3,0,0.6,0,0.9c-4.3,0-8.5,0-12.8,0c0-0.3,0-0.6,0-0.9C99.5,80.7,103.7,80.7,108.1,80.7z"/><path class="st3" d="M58,86c-0.3-0.4-0.6-0.7-0.5-0.9c0-0.2,0.3-0.4,0.5-0.6c0.2,0.2,0.5,0.3,0.5,0.5C58.5,85.3,58.3,85.5,58,86z"/><path class="st3" d="M38.6,85.7c-0.4-0.1-0.7-0.2-0.9-0.3c-0.1-0.1-0.1-0.6,0-0.7c0.2-0.2,0.5-0.1,0.9-0.2    C38.6,85,38.6,85.2,38.6,85.7z"/><path class="st3" d="M77.4,85.8c0-0.5,0-0.8,0-1.2c0.3,0.1,0.7,0,0.9,0.2c0.1,0.1,0.1,0.5,0,0.7C78.1,85.6,77.8,85.6,77.4,85.8z"/><path class="st3" d="M98.2,84.5c0,0.5,0,0.7,0,1.2c-0.3-0.1-0.7-0.1-0.9-0.2c-0.1-0.1-0.1-0.6,0-0.7    C97.5,84.6,97.8,84.6,98.2,84.5z"/><path class="st3" d="M18.7,85.2c-0.1-0.2-0.2-0.4-0.3-0.5c0.1,0,0.1,0.1,0.2,0.1C18.7,84.8,18.8,85.1,18.7,85.2z"/></g><g><path class="st3" d="M35.2,46.2c0.4,0,0.7,0.1,1.1,0.1c0.4,0,0.7,0.2,0.6,0.6c-0.1,0.2-0.4,0.3-0.6,0.5c-0.1,0-0.2,0-0.3,0    c-2.1,0-2.2,0-1.9-2.2c0-0.2,0.4-0.5,0.6-0.5c0.7-0.1,1.3-0.1,2,0c0.7,0.1,1-0.2,0.9-0.9c0-0.2-0.1-0.5,0.1-0.7    c0.1-0.1,0.5-0.2,0.6-0.1c0.2,0.1,0.3,0.3,0.4,0.5c0,0.7,0,1.4,0,2.1c0,0.2,0.1,0.5,0.1,0.7c0.1,0,0.2,0,0.3,0    c0-0.2,0.1-0.5,0.1-0.7c0-0.7,0-1.4,0-2.1c0-0.2,0.3-0.5,0.6-0.6c0.4-0.1,0.5,0.2,0.5,0.6c0,0.8,0,1.5,0,2.3    c0,0.2,0.2,0.3,0.4,0.5c0.1-0.2,0.3-0.3,0.3-0.5c0-0.7,0-1.5,0-2.2c0-0.4,0-0.7,0.5-0.7c0.5,0,0.6,0.3,0.6,0.7c0,1.1,0,2.2,0,3.2    c0,0.4-0.1,0.6-0.5,0.6c-1.3,0-2.6,0-3.8,0c-0.2-0.6-0.2-1.4-0.5-1.5c-0.6-0.2-1.4-0.1-2.1-0.1C35.2,45.9,35.2,46,35.2,46.2z"/><path class="st3" d="M52.5,46.2c0.4,0,0.7,0.1,1.1,0.1c0.4,0,0.7,0.2,0.6,0.6c-0.1,0.2-0.4,0.3-0.6,0.5c0,0-0.1,0-0.2,0    c-2.2,0-2.2,0-2-2.2c0-0.4,0.2-0.6,0.6-0.6c0.7,0,1.4,0,2.1,0c0.6,0,0.8-0.2,0.8-0.7c0-0.3,0-0.6,0.1-0.9c0.1-0.1,0.4-0.2,0.6-0.1    c0.1,0,0.3,0.3,0.3,0.5c0,0.8,0,1.6,0,2.3c0,0.2,0.2,0.4,0.3,0.5c0.1-0.2,0.3-0.4,0.3-0.6c0-0.7,0-1.5,0-2.2    c0-0.4,0.1-0.7,0.6-0.6c0.2,0.1,0.5,0.4,0.5,0.6c0.1,0.7,0,1.5,0,2.2c0,0.2,0.2,0.4,0.3,0.6c0.1-0.2,0.3-0.4,0.3-0.6    c0-0.7,0-1.5,0-2.2c0-0.2,0.3-0.4,0.4-0.6c0.2,0.2,0.6,0.3,0.6,0.5c0.1,1.2,0.1,2.3,0,3.5c0,0.2-0.3,0.5-0.5,0.5    c-1.2,0-2.3,0-3.5,0c-0.5,0-0.6-0.3-0.6-0.7c0.1-0.9-0.3-1.1-1.1-1c-0.4,0.1-0.8,0.1-1.2,0.1C52.5,45.9,52.5,46.1,52.5,46.2z"/><path class="st3" d="M89.6,47.4c-0.2-0.6-0.2-1.5-0.4-1.5c-0.7-0.2-1.4-0.1-2.1-0.1c0,0.1,0,0.3,0,0.4c0.3,0,0.7,0.1,1,0.1    c0.4,0,0.8,0,0.8,0.6c0,0.6-0.4,0.5-0.8,0.5c-0.1,0-0.1,0-0.2,0c-2.1,0-2.1,0-1.9-2.1c0-0.4,0.2-0.6,0.6-0.6c0.6,0,1.2,0,1.9,0    c0.8,0.1,1.2-0.2,1.1-1c0-0.2,0.1-0.7,0.3-0.7c0.4-0.2,0.8,0,0.8,0.5c0,0.7,0,1.4,0,2.1c0,0.2,0.1,0.4,0.1,0.7c0.1,0,0.2,0,0.2,0    c0.1-0.2,0.2-0.4,0.2-0.6c0-0.7,0-1.4,0-2.1c0-0.4,0.1-0.6,0.6-0.6c0.5,0,0.5,0.3,0.5,0.7c0,0.7,0,1.5,0,2.2    c0,0.2,0.2,0.4,0.3,0.6c0.1-0.2,0.3-0.4,0.3-0.5c0-0.8,0-1.5,0-2.3c0-0.2,0.4-0.4,0.5-0.6c0.2,0.2,0.5,0.4,0.5,0.6    c0.1,1.1,0,2.2,0,3.3c0,0.2-0.3,0.6-0.4,0.6C92.2,47.4,90.8,47.4,89.6,47.4z"/><path class="st3" d="M111.1,47.1c-0.1,0.1-0.2,0.2-0.3,0.2c0,0-0.1,0-0.1,0c-1.2,0-2.3,0-3.5,0c-0.1,0-0.2,0-0.3,0    c-0.3-0.1-0.3-0.4-0.3-0.7c0.1-0.8-0.3-1-1-0.9c-0.4,0-0.9,0-1.3,0c0,0.2,0,0.3,0,0.4c0.3,0,0.7,0.1,1,0.1c0.4,0,0.8,0.1,0.6,0.6    c-0.1,0.2-0.4,0.3-0.6,0.5c0,0,0,0-0.1,0c-0.1,0-0.2,0-0.2,0c-0.5,0-1,0-1.3,0c-0.9-0.1-0.9-0.6-0.7-2.2c0-0.2,0.3-0.5,0.5-0.5    c0.7-0.1,1.3-0.1,2,0c0.6,0,0.9-0.2,0.8-0.8c0-0.1,0-0.3,0-0.4c0.2-0.2,0.4-0.4,0.6-0.6c0.2,0.2,0.4,0.4,0.5,0.6    c0,0.8,0,1.5,0,2.3c0,0.2,0.2,0.4,0.3,0.5c0.1-0.2,0.3-0.3,0.3-0.5c0-0.7,0-1.4,0-2.1c0-0.4,0-0.8,0.6-0.8c0.2,0,0.4,0.1,0.5,0.2    c0,0,0,0.1,0,0.1c0,0.2,0,0.3,0,0.5c0,0.7,0,1.4,0,2.1c0,0.2,0.2,0.3,0.4,0.5c0.1-0.2,0.3-0.3,0.3-0.5c0-0.3,0-0.7,0-1    C110.5,45.5,110.8,46.3,111.1,47.1z"/><path class="st3" d="M24.8,47.3L24.8,47.3c-1.4,0-2.8,0-4.1,0c-0.1,0-0.4-0.4-0.4-0.6c0.1-0.9-0.3-1.1-1.1-1    c-0.4,0.1-0.8,0.1-1.2,0.1c0,0.1,0,0.2,0,0.3c0.3,0,0.5,0.2,0.8,0.2c0.8,0,1,0.3,0.8,1.1H17v-0.3c0.3-0.8,0.6-1.6,0.9-2.4    c0.5,0,1,0,1.4,0c0.8,0.1,1.1-0.2,1-1c0-0.2,0-0.6,0.2-0.7c0.3-0.3,0.9,0,0.9,0.5c0,0.8,0,1.5,0,2.3c0,0.2,0.2,0.4,0.3,0.6    c0.1-0.2,0.3-0.4,0.3-0.6c0-0.8,0-1.5,0-2.3c0-0.2,0.3-0.5,0.5-0.5c0.2,0,0.5,0.3,0.5,0.5c0.1,0.7,0,1.5,0,2.3    c0,0.2,0.1,0.4,0.1,0.6c0.1,0,0.2,0,0.2,0c0.1-0.2,0.2-0.4,0.2-0.6c0-0.7,0-1.4,0-2.1c0-0.4,0.1-0.7,0.6-0.7    c0.5,0,0.5,0.3,0.5,0.6C24.8,44.7,24.8,46,24.8,47.3z"/><path class="st3" d="M75.5,46.2c0-0.4,0.1-0.8,0.1-1.2c0-0.5,0-1.1,0-1.6c0-0.2,0.3-0.5,0.5-0.5c0.2,0,0.5,0.3,0.5,0.5    c0,1.3,0,2.6,0,4c-1.4,0-2.8,0-4.1,0c-0.1,0-0.4-0.4-0.3-0.6c0.1-0.9-0.3-1.1-1.1-1c-0.4,0-0.8,0.1-1.1,0.1c0,0.1,0,0.2,0,0.3    c0.2,0.1,0.5,0.2,0.7,0.2c0.8,0,1.1,0.2,0.8,1c-0.8,0-1.7,0-2.6,0c0-0.8,0-1.7,0-2.7c0.8,0,1.6,0,2.4,0c0.7,0.1,1.1-0.2,1-0.9    c0-0.3,0.1-0.6,0.2-0.8c0.4-0.3,0.8,0,0.9,0.5c0,0.8,0,1.5,0,2.3c0,0.2,0.2,0.4,0.3,0.5c0.1-0.2,0.3-0.4,0.3-0.6    c0-0.8,0-1.5,0-2.3c0-0.2,0.3-0.4,0.5-0.6c0.2,0.2,0.6,0.4,0.6,0.6c0.1,0.7,0,1.4,0,2.1c0,0.2,0.1,0.5,0.1,0.7    C75.2,46.2,75.3,46.2,75.5,46.2z"/><path class="st3" d="M81.6,44.6c0.2,0.6,0.2,1.4,0.5,1.5c0.6,0.2,1.4,0.1,2.1,0.1c0-0.1,0-0.3,0-0.4c-0.4,0-0.7-0.1-1.1-0.1    c-0.4,0-0.7-0.1-0.7-0.6c0-0.5,0.3-0.5,0.6-0.5c0.1,0,0.3,0,0.4,0c1.9,0,2.2,0.4,1.8,2.3c0,0.2-0.3,0.4-0.5,0.4    c-1.2,0-2.3,0-3.5,0c-0.5,0-0.6-0.2-0.6-0.7c0.1-0.9-0.3-1-1.1-1c-1.1,0.1-1.1,0-1.3,1.1c0,0.2-0.3,0.5-0.5,0.5    c-0.2,0-0.5-0.3-0.5-0.4c-0.3-2.2-0.2-2.3,1.9-2.3C80,44.6,80.8,44.6,81.6,44.6z"/><path class="st3" d="M29.9,44.6c0.1,0.6,0.2,1.5,0.4,1.5c0.7,0.2,1.4,0.1,2.2,0.1c0-0.1,0-0.2,0-0.4c-0.3,0-0.6-0.1-1-0.1    c-0.4,0-0.8,0-0.8-0.6c0-0.6,0.4-0.5,0.8-0.5c0.1,0,0.2,0,0.2,0c2,0,2.2,0.3,1.9,2.3c0,0.2-0.3,0.4-0.5,0.4c-1.2,0-2.4,0-3.6,0    c-0.5,0-0.6-0.3-0.5-0.7c0.1-0.8-0.3-1.1-1-1c-0.2,0-0.4,0-0.6,0c-0.6-0.1-0.8,0.2-0.7,0.8c0,0.4,0.2,0.9-0.6,0.9    c-0.7,0-0.5-0.6-0.5-0.9c0-1.8,0-1.8,1.8-1.8C28.2,44.6,29,44.6,29.9,44.6z"/><path class="st3" d="M63.6,47.4c-0.3-1.6-0.3-1.6-1.4-1.6c-1,0-1,0-1.2,1.5c-0.9,0.2-1,0.1-1-0.7c0-1.9,0-1.9,1.9-1.9    c0.7,0,1.4,0,2.1,0c0.5,0,0.7,0.2,0.7,0.7c-0.1,0.9,0.3,1.1,1.1,1c0.4-0.1,0.8-0.1,1.2-0.1c0-0.1,0-0.2,0-0.4    c-0.3,0-0.7-0.1-1-0.1c-0.4,0-0.8-0.1-0.7-0.6c0-0.5,0.4-0.5,0.7-0.5c0,0,0.1,0,0.1,0c2.2,0,2.2,0,2,2.2c0,0.4-0.2,0.6-0.6,0.6    C66.2,47.4,64.9,47.4,63.6,47.4z"/><path class="st3" d="M102.5,44.7c0,0.9,0,1.7,0,2.7c-1.4,0-2.7,0-4.1,0c-0.1,0-0.4-0.4-0.4-0.6c0.1-0.9-0.3-1.1-1.1-1    c-0.1,0-0.3,0-0.4,0c-0.6-0.1-0.9,0.1-0.9,0.8c0.1,0.7-0.3,1-1,0.8c0-0.8,0-1.7,0-2.6c1.4,0,2.7,0,4.1,0c0.1,0,0.3,0.5,0.3,0.8    c0,0.7,0.2,0.9,0.8,0.8c0.5,0,1,0,1.4,0c0-0.1,0-0.3,0-0.4c-0.3-0.1-0.5-0.2-0.8-0.1c-0.8,0-1-0.3-0.8-1.1    C100.7,44.7,101.6,44.7,102.5,44.7z"/><path class="st3" d="M48.1,44.7c0.9,0,1.7,0,2.6,0c0,0.9,0,1.7,0,2.7c-1.4,0-2.8,0-4.1,0c-0.1,0-0.3-0.5-0.3-0.7    c0.1-0.7-0.2-1-0.9-0.9c-0.2,0-0.4,0-0.6,0c-0.6-0.1-0.8,0.2-0.8,0.7c0,0.9,0,0.9-1,0.8c0-0.8,0-1.7,0-2.6c1.4,0,2.7,0,4.1,0    c0.1,0,0.4,0.4,0.3,0.6c-0.1,0.9,0.3,1.1,1.1,1c0.4,0,0.8-0.1,1.3-0.1C49.3,45.3,47.6,46.4,48.1,44.7z"/><path class="st3" d="M31.2,44c-1.6,0-3.2,0-4.9,0c-0.4,0-0.8,0.1-0.8-0.6c0-0.6,0.4-0.5,0.8-0.5c3.3,0,6.6,0,9.9,0    c0.4,0,0.8,0,0.7,0.6c0,0.6-0.4,0.5-0.8,0.5C34.5,44,32.8,44,31.2,44z"/><path class="st3" d="M48.5,44c-1.7,0-3.3,0-5,0c-0.4,0-0.7,0-0.7-0.6c0-0.6,0.4-0.5,0.8-0.5c3.3,0,6.6,0,9.9,0    c0.4,0,0.8,0,0.8,0.6c0,0.6-0.4,0.6-0.8,0.6C51.8,44,50.2,44,48.5,44z"/><path class="st3" d="M65.7,42.9c1.7,0,3.3,0,5,0c0.4,0,0.7,0,0.7,0.6c0,0.6-0.4,0.5-0.8,0.5c-3.3,0-6.6,0-9.9,0    c-0.4,0-0.8,0-0.8-0.6c0-0.6,0.4-0.5,0.8-0.5C62.4,42.9,64.1,42.9,65.7,42.9z"/><path class="st3" d="M82.9,44c-1.6,0-3.3,0-4.9,0c-0.4,0-0.7-0.1-0.7-0.6c0-0.5,0.4-0.5,0.7-0.5c3.3,0,6.7,0,10,0    c0.4,0,0.7,0,0.7,0.5c0,0.6-0.3,0.6-0.7,0.6C86.3,44,84.6,44,82.9,44z"/><path class="st3" d="M100.3,42.9c1.6,0,3.3,0,4.9,0c0.4,0,0.8,0,0.8,0.5c0,0.6-0.4,0.6-0.8,0.6c-3.3,0-6.6,0-9.9,0    c-0.4,0-0.8,0-0.8-0.6c0-0.6,0.4-0.6,0.7-0.6C97,42.9,98.7,42.9,100.3,42.9z"/><path class="st3" d="M62.8,46.9c0,0.1-0.1,0.2-0.2,0.5H62c-0.2-0.2-0.3-0.3-0.3-0.4c0.1-0.2,0.3-0.4,0.5-0.6    C62.5,46.5,62.8,46.7,62.8,46.9z"/><path class="st3" d="M45.6,47.5c-0.5-0.1-0.9-0.2-1.1-0.3c-0.1-0.1-0.1-0.6,0.1-0.7c0.1-0.1,0.6-0.2,0.7-0.1    C45.5,46.6,45.5,46.9,45.6,47.5z"/><path class="st3" d="M27.1,47.1c0.2-0.3,0.4-0.6,0.6-0.8c0.2,0.2,0.4,0.4,0.6,0.6c-0.3,0.2-0.5,0.4-0.8,0.6    C27.4,47.4,27.3,47.3,27.1,47.1z"/><path class="st3" d="M97.4,47.5c-0.5-0.1-0.9-0.2-1.1-0.3c-0.1-0.1-0.1-0.6,0.1-0.7c0.1-0.1,0.6-0.2,0.7-0.1    C97.3,46.6,97.3,46.9,97.4,47.5z"/><path class="st3" d="M79,47.2c0.2-0.3,0.3-0.7,0.6-0.8c0.4-0.2,0.7,0.1,0.6,0.5c-0.1,0.3-0.5,0.4-0.8,0.6    C79.2,47.4,79.1,47.3,79,47.2z"/></g></g></svg>